<svg xmlns="http://www.w3.org/2000/svg" xmlns:xlink="http://www.w3.org/1999/xlink" id="Capa_1" x="0" y="0" version="1.1" viewBox="0 0 42 42" xml:space="preserve" style="enable-background:new 0 0 42 42"><g><rect width="42" height="2" y="20"/><path d="M21,13c2.757,0,5-2.243,5-5s-2.243-5-5-5s-5,2.243-5,5S18.243,13,21,13z M21,5c1.654,0,3,1.346,3,3s-1.346,3-3,3 s-3-1.346-3-3S19.346,5,21,5z"/><path d="M21,29c-2.757,0-5,2.243-5,5s2.243,5,5,5s5-2.243,5-5S23.757,29,21,29z M21,37c-1.654,0-3-1.346-3-3s1.346-3,3-3 s3,1.346,3,3S22.654,37,21,37z"/></g></svg>